<?xml version="1.0" encoding="utf-8"?>
<!-- Created with Inkscape (http://www.inkscape.org/) -->
<svg width="512" height="512" version="1.2" viewBox="0 0 512 512" baseProfile="tiny-ps" xmlns="http://www.w3.org/2000/svg">
  <title>diyancorp</title>
  <g transform="translate(.023406)" stroke-width="2.2156">
    <path d="m0.65822 256v-255.34h510.68v510.67h-510.68z" fill="#fbfbfb" />
    <path d="m147.04 507.91c-20.168-3.2349-48.834-13.333-66.87-23.555-18.305-10.375-39.89-26.366-39.89-29.552 0-3.6494 21.63-28.208 24.844-28.208 1.3639 0 8.1548 4.0328 15.091 8.9618 48.515 34.477 115.55 45.718 177.99 29.847 18.909-4.8067 47.775-18.515 64.601-30.679 13.644-9.8633 45.46-42.008 45.46-45.929 0-1.1578-5.1187-8.932-11.375-17.276-13.512-18.02-28.449-49.226-33.949-70.921-5.7772-22.789-5.2682-67.516 1.0404-91.431 6.1864-23.451 18.868-49.907 32.928-68.691 6.2454-8.3439 11.355-16.446 11.355-18.004 0-3.4195-30.361-29.905-53.867-46.99-28.443-20.674-56.122-31.421-84.81-32.93l-12.107-0.63684-1.1349 271.44 6.0705-1.4386c3.3388-0.79121 11.781-4.4142 18.76-8.0512 6.9791-3.637 14.017-6.6126 15.64-6.6126 1.6229 0 7.2141 6.1574 12.425 13.683 7.0542 10.188 8.9337 14.551 7.358 17.082-3.1906 5.1243-23.964 16.345-42.569 22.994l-16.55 5.9142-0.53877 27.587c-0.29632 15.173-1.027 29.719-1.6236 32.325-1.2947 5.6545-33.54 34.866-37.147 33.652-1.7217-0.57938-2.8606-14.842-3.6144-45.263l-1.1006-44.418-17.681-1.4864c-60.272-5.0669-116.89-47.737-143.14-107.88-15.501-35.509-15.628-102.63-0.26608-140.93 11.539-28.77 37.167-61.29 61.866-78.506 19.784-13.79 46.43-24.813 68.036-28.146 43.031-6.6376 108.31-2.3544 140.26 9.2025 38.31 13.86 72.473 36.491 100.98 66.898l16.115 17.187 20.091-10.232c23.847-12.144 46.792-18.965 70.169-20.858l17.059-1.3812v31.265l-14.858 1.5248c-8.172 0.83862-20.716 3.0542-27.875 4.9235-13.791 3.601-41.757 16.899-44.298 21.064-0.83118 1.3625 1.0574 7.2583 4.1967 13.102 18.912 35.202 28.62 75.661 28.66 119.45 0.0405 43.982-8.1652 80.855-25.96 116.65-8.8028 17.709-9.3108 16.47 10.972 26.762 15.778 8.0068 33.755 13.013 54.304 15.121l14.858 1.5248v30.604h-9.7118c-23.071 0-58.267-10.091-81.906-23.484l-13.916-7.884-15.907 16.965c-38.335 40.884-88.14 68.256-138.11 75.902-24.845 3.8017-75.86 3.6715-100.35-0.25614zm246.47-161.47c3.0322-6.0621 8.1964-19.86 11.476-30.663 5.5428-18.257 5.9713-22.548 6.0804-60.896 0.0949-33.338-0.68015-44.465-4.0387-57.981-5.4652-21.993-14.382-44.623-17.54-44.513-3.5102 0.12127-15.019 16.484-23.342 33.188-20.514 41.17-20.954 101.06-1.0358 141.01 7.5576 15.16 18.16 30.877 20.828 30.877 1.1321 0 4.5393-4.9599 7.5715-11.022zm-218.96-166.26v-139.38l-6.0534 0.03871c-12.856 0.08224-37.58 6.947-53.38 14.821-31.952 15.924-61.89 54.271-71.35 91.388-4.3894 17.224-4.4757 50.922-0.17781 69.389 6.5932 28.33 23.811 54.707 47.627 72.964 23.526 18.034 51.87 29.514 73.978 29.962l9.3552 0.18968z" fill="#f6cda8" />
    <path d="m150.34 507.83c-22.805-4.181-43.486-11.189-63.273-21.441-21.745-11.266-44.586-27.832-44.586-32.337 0-3.3 15.41-22.181 20.953-25.672 1.3643-0.85921 7.3611 1.9872 13.326 6.3252 16.44 11.956 42.621 24.659 64.155 31.128 26.224 7.8782 71.822 9.8704 100.5 4.3907 44.489-8.5024 76.454-25.71 108.69-58.51 11.199-11.394 20.361-21.994 20.361-23.555 0-1.561-5.4319-10.153-12.071-19.094-25.424-34.237-36.909-69.976-36.694-114.18 0.15254-31.315 5.1148-52.848 18.758-81.396 5.2752-11.039 14.698-26.593 20.94-34.565l11.349-14.495-15.699-15.094c-21.278-20.458-50.276-42.2-69.035-51.762-18.933-9.6501-47.893-17.263-62.156-16.34l-10.579 0.68477v272.06l5.503-0.54227c3.0267-0.29824 12.347-4.0514 20.712-8.3404 11.201-5.7429 15.955-7.171 18.039-5.4189 4.0066 3.3687 16.279 23.102 16.279 26.176 0 4.203-17.321 14.136-39.622 22.722l-20.912 8.051-0.60996 31.509-0.60996 31.509-15.899 14.601c-8.7446 8.0303-17.116 14.612-18.604 14.625-2.0286 0.0178-2.8542-10.971-3.3018-43.946l-0.59684-43.97-20.764-2.8161c-54.616-7.4075-96.957-34.437-126.81-80.955-24.48-38.143-32.935-85.381-24.006-134.11 4.0933-22.339 20.031-56.988 34.96-76.004 21.416-27.278 60.388-52.603 93.697-60.885 20.176-5.0166 69.942-6.7385 98.585-3.4108 27.072 3.1451 61.251 13.751 84.968 26.365 27.348 14.546 61.293 42.622 77.406 64.024l5.7706 7.6647 17.969-9.8141c22.234-12.143 52.02-21.066 72.733-21.788l15.675-0.5464v24.53l-8.8049 0.59452c-24.098 1.6271-62.607 14.448-76.871 25.592-4.1108 3.2116-3.9746 3.8376 4.7861 22.01 35.618 73.883 36.218 155.95 1.6666 228.23-11.187 23.401-11.863 21.679 13.222 33.64 14.383 6.8582 40.332 13.495 58.297 14.91l7.7043 0.60679v24.53l-15.409-0.62273c-22.622-0.91422-41.229-6.1329-66.519-18.657l-22.494-11.139-7.1369 8.5191c-37.248 44.462-92.306 76.487-148.67 86.475-23.629 4.1872-72.248 4.1518-95.273-0.0694zm246.02-164.23c23.782-55.871 23.854-129.82 0.17896-182.24l-6.605-14.624-8.6364 10.035c-35.114 40.8-44.175 112.66-20.923 165.93 6.8824 15.766 23.221 39.627 26.412 38.573 1.3138-0.43394 5.6218-8.3843 9.5732-17.667zm-220.14-162.16c0.4155-102.01-0.10082-139.65-1.9314-140.8-3.1142-1.9499-16.637-0.38448-33.679 3.8987-57.479 14.446-102.33 74.081-102.49 136.29-0.15007 55.092 27.966 100.27 78.105 125.51 18.051 9.086 41.097 15.525 52.829 14.76l6.6037-0.43046z" fill="#f1a35e" />
    <path d="m150.34 507.83c-22.805-4.181-43.486-11.189-63.273-21.441-21.745-11.266-44.586-27.832-44.586-32.337 0-3.3 15.41-22.181 20.953-25.672 1.3643-0.85921 7.3611 1.9872 13.326 6.3252 16.44 11.956 42.621 24.659 64.155 31.128 26.224 7.8782 71.822 9.8704 100.5 4.3907 45.508-8.6972 76.309-25.558 110.77-60.636l22.436-22.84-6.783-8.5081c-20.902-26.218-33.911-52.727-40.42-82.365-5.2349-23.838-3.512-71.361 3.386-93.395 6.6548-21.257 19.937-46.618 33.047-63.101l10.898-13.701-12.065-11.56c-49.674-47.595-92.547-71.139-130.89-71.88l-16.509-0.3191v272.06l5.503-0.54227c3.0267-0.29824 12.347-4.0514 20.712-8.3404 11.201-5.7429 15.955-7.171 18.039-5.4189 4.0066 3.3687 16.279 23.102 16.279 26.176 0 4.203-17.321 14.136-39.622 22.722l-20.912 8.051-0.60996 31.509-0.60996 31.509-15.899 14.601c-8.7446 8.0303-17.116 14.612-18.604 14.625-2.0286 0.0178-2.8542-10.971-3.3018-43.946l-0.59684-43.97-20.764-2.8161c-54.616-7.4075-96.957-34.437-126.81-80.955-24.48-38.143-32.935-85.381-24.006-134.11 4.0933-22.339 20.031-56.988 34.96-76.004 21.416-27.278 60.388-52.603 93.697-60.885 20.332-5.0554 69.987-6.7452 98.585-3.3548 49.889 5.9146 95.026 26.361 133.91 60.658 16.097 14.2 34.166 35.216 32.551 37.863-2.3395 3.835 3.2947 1.6788 18.073-6.9164 18.147-10.554 42.028-18.808 65.105-22.501 21.929-3.5093 24.227-2.57 23.362 9.5488l-0.67784 9.498-13.269 1.4832c-28.863 3.2262-64.573 16.96-74.78 28.759-2.4213 2.7992-3.2661 4.4196-1.8771 3.6011 3.0814-1.8161 17.828 27.962 25.867 52.233 14.197 42.866 16.127 99.036 4.9151 143.06-5.8778 23.077-21.676 62.117-26.922 66.528-4.5507 3.8261-0.65049 7.676 16.791 16.574 16.339 8.336 36.12 14.102 56.006 16.324l13.269 1.4832 0.70047 8.6564c0.38526 4.761-0.26489 9.6344-1.4448 10.83-3.161 3.2024-36.451-1.8113-55.416-8.346-8.7517-3.0156-22.144-9.0136-29.761-13.329-15.002-8.4991-18.637-9.4535-18.637-4.893 0 4.7006-28.727 33.406-47.644 47.608-31.388 23.566-68.175 39.678-105.82 46.349-23.629 4.1872-72.248 4.1518-95.273-0.0694zm243.78-158.72c21.97-49.793 26.227-104.68 12.387-159.72-3.8108-15.156-15.985-43.765-18.623-43.765-3.0657 0-21.43 27.624-28.326 42.608-10.723 23.301-14.15 40.199-13.973 68.893 0.18754 30.262 5.2459 52.542 17.132 75.456 7.8922 15.215 19.82 31.585 23.015 31.585 0.96044 0 4.735-6.7737 8.388-15.053zm-217.9-167.67c0.4155-102.01-0.10082-139.65-1.9314-140.8-3.1142-1.9499-16.637-0.38448-33.679 3.8987-57.479 14.446-102.33 74.081-102.49 136.29-0.15007 55.092 27.966 100.27 78.105 125.51 18.051 9.086 41.097 15.525 52.829 14.76l6.6037-0.43046z" fill="#9e9d9d" />
    <path d="m165.75 509.24c-37.576-6.7075-73.911-20.743-101.1-39.052-22.086-14.875-22.015-14.694-11.023-27.9 5.1427-6.1787 10.24-11.234 11.328-11.234 1.0876 0 7.6187 3.8767 14.514 8.6149 18.339 12.602 37.302 21.769 59.21 28.621 18.258 5.7108 21.813 6.0564 62.287 6.0564s44.029-0.3456 62.287-6.0564c35.011-10.951 63.286-28.088 87.683-53.144 8.0273-8.2442 16.679-17.954 19.226-21.578l4.631-6.5888-6.8748-8.6251c-21.003-26.35-33.993-52.798-40.512-82.482-5.2349-23.838-3.512-71.361 3.386-93.395 6.69-21.369 19.955-46.641 33.266-63.376 6.1141-7.6868 10.614-15.302 10-16.923-2.0588-5.4355-41.901-39.201-63.693-53.978-13.816-9.3688-28.17-16.932-39.926-21.037-22.012-7.6866-51.081-12.029-55.522-8.2947-2.4587 2.0672-2.8811 26.558-2.4133 139.92l0.56699 137.42 6.9425-0.30551c3.8184-0.16792 13.011-3.4294 20.427-7.2476 7.4166-3.8181 14.361-6.942 15.433-6.942s5.6009 5.0415 10.066 11.203c6.8457 9.4478 7.6728 11.746 5.2785 14.669-3.9787 4.8568-22.16 13.924-41.637 20.766l-16.509 5.799-1.1006 32.7c-0.60533 17.985-1.5959 33.069-2.2012 33.521-0.60533 0.45156-6.8761 6.0506-13.935 12.442-7.0589 6.3918-13.724 11.621-14.811 11.621-1.087 0-2.2453-19.318-2.5741-42.928l-0.59784-42.928-21.583-2.874c-42.237-5.6243-77.438-23.552-105.57-53.767-21.651-23.252-32.055-42.482-44.761-82.735-5.3812-17.048-5.3909-60.95-0.017236-78.051 13.531-43.058 27.216-66.54 52.991-90.926 51.59-48.81 130.23-61.918 214.7-35.785 43.657 13.507 91.502 46.23 119.75 81.905l6.0176 7.5991 8.1047-4.9606c25.55-15.638 58.73-26.671 82.946-27.581l13.207-0.49641v20.07l-13.269 1.4832c-27.442 3.0674-60.407 15.197-72.931 26.835l-4.7549 4.4183 8.4816 15.967c17.133 32.253 28.517 79.135 28.517 117.43 0 37.31-10.601 81.986-27.538 116.06-9.3383 18.786-9.207 19.109 12.219 30.04 16.339 8.336 36.12 14.102 56.006 16.324l13.269 1.4832 0.70047 8.6564c0.38526 4.761-0.26489 9.6344-1.4448 10.83-3.1412 3.1823-36.403-1.7949-55.139-8.2508-8.5996-2.9632-22.586-9.2122-31.08-13.887l-15.444-8.499-14.389 16.083c-23.623 26.403-53.971 48.016-88.722 63.185-33.384 14.573-58.902 20.401-92.747 21.184-16.344 0.37801-34.174-0.10838-39.622-1.0809zm231.83-162.37c4.4016-9.5055 10.105-25.311 12.674-35.123 5.9024-22.543 7.9562-66.249 4.3892-93.404-4.2191-32.119-18.406-72.732-25.406-72.732-4.198 0-21.5 24.842-29.677 42.608-10.723 23.301-14.15 40.199-13.973 68.893 0.18754 30.262 5.2459 52.542 17.132 75.456 8.8395 17.042 19.919 31.585 24.063 31.585 1.537 0 6.3958-7.7772 10.797-17.283zm-219.16-166.09 0.56659-142.12-5.4328-1.3814c-8.7538-2.2258-40.571 5.3949-58.435 13.996-33.323 16.044-67.101 59.151-75.865 96.817-7.2558 31.184-2.5587 70.819 11.81 99.656 20.21 40.56 77.404 77.569 116.88 75.632l9.9055-0.48583z" fill="#ee872a" />
    <path d="m165.75 509.24c-37.576-6.7075-73.911-20.743-101.1-39.052-22.086-14.875-22.015-14.694-11.023-27.9 5.1427-6.1787 10.24-11.234 11.328-11.234 1.0876 0 7.6187 3.8767 14.514 8.6149 18.339 12.602 37.302 21.769 59.21 28.621 18.258 5.7108 21.813 6.0564 62.287 6.0564s44.029-0.3456 62.287-6.0564c36.196-11.321 63.602-28.237 89.701-55.365 25.14-26.131 24.949-25.297 10.23-44.765-24.483-32.383-36.962-69.34-37.098-109.87-0.15673-46.452 11.988-82.314 40.22-118.76 5.9171-7.6394 10.709-14.664 10.648-15.61-0.0607-0.94622-10.452-10.752-23.092-21.791-32.35-28.252-62.633-48.106-84.58-55.455-22.116-7.4052-50.064-11.416-54.362-7.8023-2.4587 2.0672-2.8811 26.558-2.4133 139.92l0.56699 137.42 6.9425-0.30551c3.8184-0.16792 13.011-3.4294 20.427-7.2476 7.4166-3.8181 14.361-6.942 15.433-6.942s5.6009 5.0415 10.066 11.203c6.8457 9.4478 7.6728 11.746 5.2785 14.669-3.9787 4.8568-22.16 13.924-41.637 20.766l-16.509 5.799-1.1006 32.7c-0.60533 17.985-1.5959 33.069-2.2012 33.521-0.60533 0.45156-6.8761 6.0506-13.935 12.442-7.0589 6.3918-13.724 11.621-14.811 11.621-1.087 0-2.2453-19.318-2.5741-42.928l-0.59784-42.928-21.583-2.874c-42.237-5.6243-77.438-23.552-105.57-53.767-21.651-23.252-32.055-42.482-44.761-82.735-5.3812-17.048-5.3909-60.95-0.017236-78.051 13.531-43.058 27.216-66.54 52.991-90.926 36.975-34.983 90.575-52.375 149.76-48.596 45.828 2.9264 94.773 20.003 132.56 46.251 18.608 12.925 55.641 49.086 55.641 54.333 0 4.8333 3.8106 4.0101 15.676-3.3865 21.582-13.453 49.282-22.847 76.225-25.848l13.758-1.5328v9.2081c0 9.151-0.0511 9.2082-8.2546 9.2238-20.101 0.03804-61.349 14.233-77.551 26.687l-5.4607 4.1979 9.172 17.442c31.527 59.955 37.57 134.49 16.156 199.25-7.034 21.27-18.895 46.856-22.945 49.497-4.5699 2.9798 1.7094 8.9223 18.566 17.57 17.815 9.1397 36.61 14.682 57.172 16.859l13.145 1.3919v8.6024c0 9.8324 0.49615 9.6974-23.113 6.2906-20.654-2.9804-45.618-11.591-61.194-21.108-7.022-4.2902-13.956-7.717-15.409-7.6151-1.4527 0.10191-7.6393 6.3739-13.748 13.938-12.069 14.944-39.586 38.354-58.995 50.192-18.131 11.058-48.116 23.575-72.977 30.465-17.841 4.9441-27.643 6.2303-51.729 6.7873-16.344 0.37801-34.174-0.10838-39.622-1.0809zm231.21-161.25c12.505-26.501 17.763-49.045 19.125-81.999 1.287-31.128-1.6071-59.095-8.4822-81.967-6.4759-21.544-15.251-40.638-18.676-40.638-4.3181 0-19.919 20.916-28.546 38.272-22.856 45.981-23.175 104.14-0.81741 149.37 8.5026 17.2 21.734 35.36 25.764 35.36 1.623 0 6.8574-8.279 11.632-18.398zm-218.53-167.2 0.56659-142.12-5.4328-1.3814c-8.7538-2.2258-40.571 5.3949-58.435 13.996-33.323 16.044-67.101 59.151-75.865 96.817-7.2558 31.184-2.5587 70.819 11.81 99.656 20.21 40.56 77.404 77.569 116.88 75.632l9.9055-0.48583z" fill="#e97c1b" />
    <path d="m165.75 509.24c-37.576-6.7075-73.911-20.743-101.1-39.052-22.086-14.875-22.015-14.694-11.023-27.9 5.1427-6.1787 10.24-11.234 11.328-11.234 1.0876 0 7.6187 3.8767 14.514 8.6149 18.339 12.602 37.302 21.769 59.21 28.621 18.258 5.7108 21.813 6.0564 62.287 6.0564s44.029-0.3456 62.287-6.0564c40.524-12.675 74.332-35.072 99.391-65.844l10.895-13.378 12.644 10.4c6.954 5.7202 12.7 10.916 12.769 11.546 0.36629 3.3572-28.827 32.793-44.04 44.407-22.093 16.865-32.925 23.296-56.796 33.716-33.384 14.573-58.902 20.401-92.747 21.184-16.344 0.37801-34.174-0.10838-39.622-1.0809zm12.705-107.73-0.59784-42.928-21.583-2.874c-42.237-5.6243-77.438-23.552-105.57-53.767-21.651-23.252-32.055-42.482-44.761-82.735-5.3812-17.048-5.3909-60.95-0.017236-78.051 13.531-43.058 27.216-66.54 52.991-90.926 36.975-34.983 90.575-52.375 149.76-48.596 45.828 2.9264 94.773 20.003 132.56 46.251 16.164 11.227 55.641 48.837 55.641 53.01 0 1.0648-4.9081 6.0991-10.907 11.187l-10.907 9.2513-21.561-19.275c-30.019-26.836-60.607-47.05-83.058-54.89-22.012-7.6866-51.081-12.029-55.522-8.2947-2.4587 2.0672-2.8811 26.558-2.4133 139.92l0.56699 137.42 6.9425-0.30551c3.8184-0.16792 13.011-3.4294 20.427-7.2476 7.4166-3.8181 14.361-6.942 15.433-6.942s5.6009 5.0415 10.066 11.203c6.8457 9.4478 7.6728 11.746 5.2785 14.669-3.9787 4.8568-22.16 13.924-41.637 20.766l-16.509 5.799-1.1006 32.7c-0.60533 17.985-1.5959 33.069-2.2012 33.521-0.60533 0.45156-6.8761 6.0506-13.935 12.442-7.0589 6.3918-13.724 11.621-14.811 11.621-1.087 0-2.2453-19.318-2.5741-42.928zm-0.0313-220.73 0.56659-142.12-5.4328-1.3814c-8.7538-2.2258-40.571 5.3949-58.435 13.996-33.323 16.044-67.101 59.151-75.865 96.817-7.2558 31.184-2.5587 70.819 11.81 99.656 20.21 40.56 77.404 77.569 116.88 75.632l9.9055-0.48583zm221.03 195.56-11.105-10.115 8.6433-18.318c12.467-26.422 17.726-48.992 19.088-81.919 1.7665-42.723-3.9277-76.251-18.673-109.95l-5.6844-12.992 9.7307-8.6559c5.3519-4.7608 10.351-8.6987 11.109-8.751 2.7196-0.18761 17.272 30.688 23.877 50.661 20.652 62.449 16.642 129.01-11.485 190.64-4.8978 10.732-10.14 19.513-11.65 19.513s-7.7418-4.5517-13.849-10.115z" fill="#6d6d6d" />
    <path d="m169.05 509.11c-6.1393-0.85308-8.5727-1.7732-5.5031-2.081 3.0267-0.30337-1.5951-1.8564-10.271-3.4511-31.308-5.7551-67.412-21.027-93.669-39.623-14.081-9.9719-14.121-10.873-1.0568-23.602l7.6269-7.4316 10.714 7.7831c10.368 7.532 34.596 20.439 48.135 25.643 36.709 14.11 90.641 16.401 132.99 5.6505 36.968-9.3851 70.879-29.943 98.952-59.988l17.9-19.158 9.9049 8.2225c5.4477 4.5224 9.9049 9.2204 9.9049 10.44s-7.6768 10.229-17.059 20.021c-34.494 35.999-84.637 63.087-133.36 72.043-8.6755 1.5947-13.297 3.1242-10.271 3.3987 3.1466 0.28546 0.79012 1.2429-5.5031 2.2359-13.165 2.0774-44.129 2.0239-59.433-0.10258zm11.605-110.94-0.59888-41.813-13.207-1.7637c-55.713-7.4398-91.916-25.785-121.05-61.339-19.467-23.76-38.109-65.113-38.762-85.986-0.2071-6.6191-0.30779-6.6998-1.794-1.4376-2.3617 8.3621-4.5035-22.098-2.9008-41.255 0.9653-11.539 1.7192-14.156 2.8907-10.035 1.4974 5.2679 1.5969 5.1887 1.8042-1.4376 0.59576-19.041 16.765-56.918 34.503-80.823 24.872-33.52 77.854-63.701 114.3-65.11 6.4157-0.24799 6.447-0.30165 1.1006-1.8856-7.5172-2.227 40.782-4.015 60.534-2.2409 8.4747 0.76121 12.437 1.6412 8.8049 1.9555-3.8274 0.33124 0.89347 1.7514 11.229 3.3779 35.572 5.5982 69.338 18.96 98.788 39.092 17.285 11.816 46.435 38.365 54.102 49.273l4.2253 6.0115-18.769 15.581-22.455-19.491c-48.633-42.213-75.939-56.769-117.25-62.499-29.462-4.0867-26.506-20.357-25.847 142.26l0.56681 139.85 8.2619-0.25502c4.544-0.14027 14.78-3.5057 22.746-7.4787l14.484-7.2237 3.6689 5.1043c2.0179 2.8074 5.44 7.8335 7.6046 11.169l3.9357 6.0648-11.64 6.7381c-6.402 3.706-19.564 9.4266-29.25 12.713s-18.338 7.123-19.227 8.5266c-0.88947 1.4037-1.6324 16.251-1.6509 32.994l-0.0337 30.442-12.956 11.371c-7.1258 6.2539-13.542 11.371-14.259 11.371-0.71689 0-1.5729-18.816-1.9023-41.813zm-0.0325-217.38 0.56634-144.35-5.6235-1.4299c-10.456-2.6585-42.773 5.0797-62.519 14.97-32.052 16.054-60.582 49.972-72.944 86.718-6.6704 19.828-8.2471 57.571-3.2978 78.942 7.4839 32.315 24.753 58.978 51.189 79.035 27.232 20.661 55.858 31.717 79.956 30.88l12.107-0.42013zm220.83 194.93-9.7286-8.499 7.9537-18.813c15.654-37.027 18.084-49.769 18.042-94.633-0.0412-44.857-3.6291-65.385-16.425-93.976l-6.7098-14.992 7.079-7.3993c3.8935-4.0696 8.2346-7.3993 9.6469-7.3993 5.6565 0 24.722 46.302 30.817 74.845 5.2915 24.776 5.3693 75.789 0.15629 102.41-5.2831 26.978-24.684 76.987-29.858 76.962-0.68506-2e-3 -5.6235-3.8306-10.974-8.505z" fill="#5a5a5a" />
  </g>
</svg>